<svg id="Layer_1" data-name="Layer 1" xmlns="http://www.w3.org/2000/svg" viewBox="0 0 4551.45 1481.46"><title>Bleed - JUMP</title><path d="M4194.15,0V106.37h0v517c0,50-36.25,80.57-83.7,80.57s-83.75-30.59-83.75-80.57V0h-357.3V1446.61a22,22,0,0,0,22,22h313.3a22,22,0,0,0,22-22V1023.27a519.37,519.37,0,0,0,75.35,5.48c2.89,0,5.71-.14,8.58-.18l-.18.18c178.28,0,441.05-120.94,441.05-368.67V0Z"/><path d="M2915.89,0l-98.76,323L2718.38,0H2165.7V1446.61a22,22,0,0,0,22,22h315.58a22,22,0,0,0,22-22V444.38a3,3,0,0,1,5.8-1.13l256,629.48c11,27,49.23,27,60.21,0l256-629.48a3,3,0,0,1,5.81,1.13V1446.61a22,22,0,0,0,22,22h315.58a22,22,0,0,0,22-22V0Z"/><path d="M1607.62,0V1076.08c0,50-36.29,80.58-86.55,80.58-44.64,0-81-30.6-81-80.58V0h-357.3V1067.8c0,231.79,189.8,413.66,438.25,413.66,254,0,443.86-181.11,443.86-413.66V0Z"/><path d="M524.75,0V1076.08c0,50-36.24,80.58-83.75,80.58s-83.7-30.6-83.7-80.58V566a22,22,0,0,0-22-22H22A22,22,0,0,0,0,566v496.19c0,248.21,198.14,419.27,449.4,419.27s432.66-172.17,432.66-419.27V0Z"/></svg>